<?xml version="1.0" encoding="UTF-8"?>
<svg xmlns="http://www.w3.org/2000/svg" width="273.153" height="47" viewBox="0 0 273.153 47">
  <g id="Group_199" data-name="Group 199" transform="translate(-50 -32)">
    <path id="Path_14" data-name="Path 14" d="M113.139,1.874l-5.687,17.061L101.766,1.874H90.391L84.7,18.935,79.018,1.874H67.643L79.018,32.206H90.391l5.687-15.166,5.688,15.166h11.374L124.514,1.874Zm37.156,0L143.471,14.6,136.646,1.874H125.273l12.512,20.852v9.48h11.374v-9.48L161.67,1.874Zm38.673,0V19.206L173.8,1.874H162.429V32.206H173.8V14.873l15.166,17.333h11.374V1.874Zm41.7,0V19.206L215.508,1.874H204.134V32.206h11.374V14.873l15.165,17.333h11.374V1.874Zm15.166,0V32.206h30.331V24.622H257.213V20.831h17.062V13.248H257.213V9.457h18.957V1.874Z" transform="translate(46.982 31.178)" fill="#00457c"></path>
    <path id="Path_15" data-name="Path 15" d="M94.323,47.616A2.713,2.713,0,0,1,91.6,44.742v-.053h0l0,0a2.721,2.721,0,1,1,5.437,0v.053a2.713,2.713,0,0,1-2.719,2.874m3.757-2.929a3.757,3.757,0,0,0-7.514,0c0,.019,0,.037,0,.055a3.758,3.758,0,1,0,7.515,0v-.054Z" transform="translate(46.613 29.658)" fill="#00457c"></path>
    <path id="Path_16" data-name="Path 16" d="M134.277,44.686h0c-1.053-.58-2.628-.5-2.628-1.717,0-.448.326-1.1,1.4-1.1a1.512,1.512,0,0,1,1.284.633l.795-.724a2.492,2.492,0,0,0-2.078-.826,2.189,2.189,0,0,0-2.443,2.018,1.9,1.9,0,0,0,.833,1.717h0c1.051.713,2.722.587,2.722,1.726a1.337,1.337,0,0,1-1.436,1.2,1.8,1.8,0,0,1-1.527-.774l-.805.692a2.764,2.764,0,0,0,2.3,1A2.278,2.278,0,0,0,135.2,46.3a1.677,1.677,0,0,0-.925-1.616" transform="translate(45.365 29.658)" fill="#00457c"></path>
    <path id="Path_17" data-name="Path 17" d="M76.722,46.646a2.22,2.22,0,0,1-1.884.968A2.653,2.653,0,0,1,72.15,44.8c0-.039,0-.076,0-.114h0l0,0a2.706,2.706,0,0,1,2.686-2.819,2.214,2.214,0,0,1,1.742.825l.815-.621a3.162,3.162,0,0,0-2.526-1.122,3.641,3.641,0,0,0-3.756,3.736h0c0,.038,0,.077,0,.116a3.713,3.713,0,0,0,3.706,3.73,3.35,3.35,0,0,0,2.728-1.263Z" transform="translate(47.227 29.658)" fill="#00457c"></path>
    <path id="Path_18" data-name="Path 18" d="M116.406,44.692v2.379l-1.6-2.379-2.391-3.553h-1.284v7.216h.978V42.423l1.543,2.269,2.49,3.663h1.242V41.139h-.977Z" transform="translate(45.969 29.652)" fill="#00457c"></path>
    <path id="Path_19" data-name="Path 19" d="M209.065,46.646a2.219,2.219,0,0,1-1.884.968,2.653,2.653,0,0,1-2.688-2.813c0-.039,0-.076,0-.114h0l0,0a2.708,2.708,0,0,1,2.687-2.819,2.214,2.214,0,0,1,1.742.825l.815-.621a3.161,3.161,0,0,0-2.525-1.122,3.641,3.641,0,0,0-3.757,3.736h0c0,.038,0,.077,0,.116a3.713,3.713,0,0,0,3.706,3.73,3.354,3.354,0,0,0,2.729-1.263Z" transform="translate(43.068 29.658)" fill="#00457c"></path>
    <path id="Path_20" data-name="Path 20" d="M261.827,44.741a2.723,2.723,0,1,1-5.437,0v-.055a2.721,2.721,0,1,1,5.437,0Zm-2.719-3.792a3.666,3.666,0,0,0-3.757,3.737v.055a3.758,3.758,0,1,0,7.515,0v-.055a3.669,3.669,0,0,0-3.758-3.737" transform="translate(41.402 29.658)" fill="#00457c"></path>
    <path id="Path_21" data-name="Path 21" d="M241.522,44.692v3.663h.978V41.139h-.978Z" transform="translate(41.814 29.652)" fill="#00457c"></path>
    <path id="Path_22" data-name="Path 22" d="M281.191,41.139V47.07l-1.6-2.378L277.2,41.139h-1.285v7.216h.978V42.423l1.544,2.269,2.489,3.663h1.242V41.139Z" transform="translate(40.793 29.652)" fill="#00457c"></path>
    <path id="Path_23" data-name="Path 23" d="M167.761,41.995h1.284c.773,0,1.548.183,1.548,1.162s-.774,1.161-1.548,1.161h-1.284Zm2.1,3.068a2.057,2.057,0,0,0,.977-.368h-.026l.026,0a1.891,1.891,0,0,0,.795-1.535c0-.907-.469-2.018-2.311-2.018h-2.535v7.216h.977v-3.18h1.09l1.833,3.18h1.223Z" transform="translate(44.223 29.652)" fill="#00457c"></path>
    <path id="Path_24" data-name="Path 24" d="M148.17,42.056h2.321v6.3h.978v-6.3h2.322v-.918H148.17Z" transform="translate(44.805 29.652)" fill="#00457c"></path>
    <path id="Path_25" data-name="Path 25" d="M222.909,42.056h2.322v6.3h.977v-6.3h2.322v-.918h-5.621Z" transform="translate(42.459 29.652)" fill="#00457c"></path>
    <path id="Path_26" data-name="Path 26" d="M189.486,44.692v.87a1.828,1.828,0,1,1-3.626,0V41.139h-.977v4.577a2.79,2.79,0,1,0,5.58,0V41.139h-.977Z" transform="translate(43.652 29.652)" fill="#00457c"></path>
    <rect id="Rectangle_39" data-name="Rectangle 39" width="13.168" height="13.168" transform="matrix(0.707, -0.707, 0.707, 0.707, 50.102, 41.312)" fill="#d0e6f9" opacity="0.8"></rect>
    <rect id="Rectangle_40" data-name="Rectangle 40" width="13.168" height="13.168" transform="translate(59.754 50.844) rotate(-45)" fill="#d0e6f9" opacity="0.8"></rect>
    <rect id="Rectangle_41" data-name="Rectangle 41" width="13.168" height="13.168" transform="translate(79.059 50.844) rotate(-45)" fill="#d0e6f9" opacity="0.8"></rect>
    <rect id="Rectangle_42" data-name="Rectangle 42" width="13.168" height="13.168" transform="matrix(0.707, -0.707, 0.707, 0.707, 88.711, 41.311)" fill="#d0e6f9" opacity="0.8"></rect>
    <rect id="Rectangle_43" data-name="Rectangle 43" width="13.168" height="13.168" transform="translate(69.406 41.312) rotate(-45)" fill="#d0e6f9" opacity="0.8"></rect>
    <path id="Path_28" data-name="Path 28" d="M9.729,20.039V38.422L.558,29.37V10.987Z" transform="translate(49.441 30.907)" fill="#00457c"></path>
    <path id="Path_29" data-name="Path 29" d="M50.3,38.422V20.039l9.17-9.052V29.37Z" transform="translate(47.879 30.907)" fill="#9fc9ed" opacity="0.8"></path>
    <path id="Path_30" data-name="Path 30" d="M30.4,39.518V20.936l9.17,9.169V48.747Z" transform="translate(48.555 30.253)" fill="#00457c"></path>
    <path id="Path_31" data-name="Path 31" d="M40.352,30.105l9.169-9.17V39.558l-9.169,9.17Z" transform="translate(48.258 30.253)" fill="#9fc9ed" opacity="0.8"></path>
    <path id="Path_32" data-name="Path 32" d="M29.623,39.518l-9.169,9.2V30.105l9.169-9.169Z" transform="translate(48.852 30.253)" fill="#9fc9ed" opacity="0.8"></path>
    <path id="Path_33" data-name="Path 33" d="M19.677,48.728l-9.17-9.17V20.935l9.17,9.17Z" transform="translate(49.146 30.253)" fill="#00457c"></path>
  </g>
</svg>
