<svg xmlns="http://www.w3.org/2000/svg" width="349.424" height="50" viewBox="0 0 349.424 50">
  <g id="Group_378" data-name="Group 378" transform="translate(-2815.598 3089.845)">
    <path id="Path_1281" data-name="Path 1281" d="M152.507,1.6,139.889,22.627v9.56h-11.47v-9.56L115.8,1.6h11.47l6.883,12.836L141.037,1.6Zm-71.884,0H92.095L97.83,18.8,103.565,1.6h11.47l-11.47,30.589H92.095L86.358,16.893,80.623,32.187H69.152L57.682,1.6h11.47L74.889,18.8Zm72.65,0h11.47l15.3,17.48V1.6h11.47V32.187h-11.47l-15.3-17.48v17.48h-11.47Zm84.119,0h30.589V9.245H248.863v3.824H266.07v7.647H248.863V24.54h19.117v7.647H237.392Zm-42.06,0H206.8L222.1,19.078V1.6h11.472V32.187H222.1L206.8,14.707v17.48H195.332Z" transform="translate(2824.106 -3089.61)" fill="#00366a" fill-rule="evenodd"/>
    <path id="Path_1282" data-name="Path 1282" d="M81.018,41.641a2.736,2.736,0,0,1-2.743-2.9V38.69h0l0,0a2.743,2.743,0,1,1,5.483,0v.053a2.735,2.735,0,0,1-2.741,2.9m3.789-2.954a3.789,3.789,0,0,0-7.578,0v.055a3.789,3.789,0,1,0,7.578,0v-.054Z" transform="translate(2826.99 -3084.694)" fill="#00366a"/>
    <path id="Path_1283" data-name="Path 1283" d="M115.108,38.686h0c-1.061-.585-2.65-.507-2.65-1.733,0-.452.329-1.11,1.417-1.11a1.525,1.525,0,0,1,1.294.638l.8-.731a2.514,2.514,0,0,0-2.1-.832,2.208,2.208,0,0,0-2.464,2.035,1.917,1.917,0,0,0,.84,1.733h0c1.059.719,2.744.592,2.744,1.741a1.347,1.347,0,0,1-1.448,1.213,1.814,1.814,0,0,1-1.54-.78l-.811.7a2.786,2.786,0,0,0,2.32,1.008,2.3,2.3,0,0,0,2.527-2.25,1.692,1.692,0,0,0-.933-1.629" transform="translate(2832 -3084.694)" fill="#00366a"/>
    <path id="Path_1284" data-name="Path 1284" d="M66.3,40.665a2.237,2.237,0,0,1-1.9.977,2.676,2.676,0,0,1-2.71-2.837c0-.039,0-.077,0-.115h0l0,0A2.73,2.73,0,0,1,64.4,35.844a2.235,2.235,0,0,1,1.757.833l.822-.628a3.188,3.188,0,0,0-2.547-1.13,3.672,3.672,0,0,0-3.788,3.766v0h0c0,.038,0,.077,0,.117a3.745,3.745,0,0,0,3.739,3.762,3.381,3.381,0,0,0,2.752-1.275Z" transform="translate(2824.543 -3084.694)" fill="#00366a"/>
    <path id="Path_1285" data-name="Path 1285" d="M100.086,38.664v2.4l-1.615-2.4L96.06,35.08H94.766v7.278h.987V36.376l1.555,2.288,2.511,3.694h1.253V35.08h-.986Z" transform="translate(2829.576 -3084.671)" fill="#00366a"/>
    <path id="Path_1286" data-name="Path 1286" d="M179.152,40.665a2.236,2.236,0,0,1-1.9.977,2.676,2.676,0,0,1-2.71-2.837c0-.039,0-.077,0-.115h0l0,0a2.731,2.731,0,0,1,2.709-2.844,2.231,2.231,0,0,1,1.756.833l.823-.628a3.189,3.189,0,0,0-2.546-1.13,3.673,3.673,0,0,0-3.789,3.766l0,0h0c0,.038,0,.077,0,.117a3.746,3.746,0,0,0,3.739,3.762,3.386,3.386,0,0,0,2.753-1.275Z" transform="translate(2841.189 -3084.694)" fill="#00366a"/>
    <path id="Path_1287" data-name="Path 1287" d="M224.279,38.742a2.746,2.746,0,1,1-5.484,0v-.055a2.744,2.744,0,1,1,5.484,0Zm-2.743-3.823a3.7,3.7,0,0,0-3.789,3.768v.055a3.789,3.789,0,1,0,7.578,0v-.054h0a3.7,3.7,0,0,0-3.789-3.768" transform="translate(2847.717 -3084.694)" fill="#00366a"/>
    <path id="Path_1288" data-name="Path 1288" d="M205.955,38.664v3.694h.986V35.08h-.986Z" transform="translate(2845.977 -3084.671)" fill="#00366a"/>
    <path id="Path_1289" data-name="Path 1289" d="M240.6,35.08v5.982l-1.613-2.4-2.412-3.584h-1.294v7.278h.987V36.376l1.556,2.288,2.51,3.694h1.253V35.08Z" transform="translate(2850.304 -3084.671)" fill="#00366a"/>
    <path id="Path_1290" data-name="Path 1290" d="M143.209,35.944H144.5c.781,0,1.561.185,1.561,1.172s-.779,1.172-1.561,1.172h-1.294Zm2.116,3.094a2.075,2.075,0,0,0,.986-.372h-.026l.026,0a1.908,1.908,0,0,0,.8-1.548c0-.915-.472-2.036-2.331-2.036h-2.557v7.278h.985V39.151h1.1l1.849,3.206h1.232Z" transform="translate(2836.577 -3084.671)" fill="#00366a"/>
    <path id="Path_1291" data-name="Path 1291" d="M126.351,36.006h2.341v6.351h.987V36.006h2.341v-.925h-5.669Z" transform="translate(2834.235 -3084.671)" fill="#00366a"/>
    <path id="Path_1292" data-name="Path 1292" d="M190.083,36.006h2.342v6.351h.986V36.006h2.341v-.925h-5.669Z" transform="translate(2843.636 -3084.671)" fill="#00366a"/>
    <path id="Path_1293" data-name="Path 1293" d="M162.3,38.664v.878a1.843,1.843,0,1,1-3.657,0V35.08h-.985V39.7a2.814,2.814,0,1,0,5.627,0V35.08H162.3Z" transform="translate(2838.853 -3084.671)" fill="#00366a"/>
    <path id="Path_1294" data-name="Path 1294" d="M10.038,0l9.734,9.734L29.507,0l9.734,9.734L48.976,0,59.013,10.039v19.72L39.221,49.552l-9.714-9.8-9.715,9.8L0,29.758V10.039Z" transform="translate(2815.598 -3089.845)" fill="#fff"/>
    <rect id="Rectangle_621" data-name="Rectangle 621" width="13.28" height="13.28" transform="translate(2816.246 -3079.682) rotate(-45)" fill="#c3e2f8"/>
    <rect id="Rectangle_622" data-name="Rectangle 622" width="13.28" height="13.28" transform="translate(2825.98 -3069.947) rotate(-45)" fill="#c3e2f8"/>
    <rect id="Rectangle_623" data-name="Rectangle 623" width="13.28" height="13.28" transform="translate(2845.449 -3069.947) rotate(-45)" fill="#c3e2f8"/>
    <rect id="Rectangle_624" data-name="Rectangle 624" width="13.28" height="13.28" transform="translate(2855.183 -3079.682) rotate(-45)" fill="#c3e2f8"/>
    <rect id="Rectangle_625" data-name="Rectangle 625" width="13.28" height="13.28" transform="translate(2835.715 -3079.682) rotate(-45)" fill="#c3e2f8"/>
    <path id="Path_1295" data-name="Path 1295" d="M9.724,18.617V37.4L.476,28.15V9.369Z" transform="translate(2815.668 -3088.463)" fill="#00366a"/>
    <path id="Path_1296" data-name="Path 1296" d="M42.892,37.4V18.617L52.14,9.369V28.15Z" transform="translate(2821.925 -3088.464)" fill="#8abfe9"/>
    <path id="Path_1297" data-name="Path 1297" d="M25.928,36.593V17.853L35.174,27.1V45.9Z" transform="translate(2819.422 -3087.212)" fill="#00366a"/>
    <path id="Path_1298" data-name="Path 1298" d="M34.409,27.1l9.248-9.248V36.634l-9.248,9.248Z" transform="translate(2820.673 -3087.212)" fill="#8abfe9"/>
    <path id="Path_1299" data-name="Path 1299" d="M26.689,36.593,17.442,45.87V27.1l9.248-9.248Z" transform="translate(2818.171 -3087.212)" fill="#8abfe9"/>
    <path id="Path_1300" data-name="Path 1300" d="M18.207,45.881,8.96,36.633V17.852L18.207,27.1Z" transform="translate(2816.919 -3087.212)" fill="#00366a"/>
    <line id="Line_10" data-name="Line 10" y2="48.167" transform="translate(3101.687 -3088.46)" fill="none" stroke="#fff" stroke-miterlimit="10" stroke-width="1"/>
    <path id="Path_1339" data-name="Path 1339" d="M273.395,50.118a35.213,35.213,0,0,1-5.5-.421,25.975,25.975,0,0,1-6.237-1.754.151.151,0,0,1-.091-.139V37.043a.152.152,0,0,1,.068-.126.155.155,0,0,1,.083-.024.159.159,0,0,1,.06.011,25.741,25.741,0,0,0,6.165,1.732,34.7,34.7,0,0,0,5.456.419,41.092,41.092,0,0,0,6.323-.5c.37-.058.729-.115,1.08-.173a8.66,8.66,0,0,1-1.822-1.33,9.111,9.111,0,0,1-2.032-2.911,9.461,9.461,0,0,1-.758-3.88V12.216a9.468,9.468,0,0,1,.758-3.881,9.127,9.127,0,0,1,2.032-2.91,8.8,8.8,0,0,1,2.943-1.851,9.864,9.864,0,0,1,6.97,0,8.793,8.793,0,0,1,2.943,1.851,9.155,9.155,0,0,1,2.032,2.91,9.494,9.494,0,0,1,.758,3.881V30.257a9.07,9.07,0,0,1-1.911,5.815c1.378-.279,3.02-.6,4.964-.9a9.19,9.19,0,0,1-.546-1.033,9.454,9.454,0,0,1-.758-3.879V12.216a9.468,9.468,0,0,1,.758-3.881,9.127,9.127,0,0,1,2.032-2.91,8.786,8.786,0,0,1,2.943-1.851,9.861,9.861,0,0,1,6.969,0,8.793,8.793,0,0,1,2.943,1.851,9.154,9.154,0,0,1,2.032,2.91,9.489,9.489,0,0,1,.759,3.881V30.257a8.938,8.938,0,0,1-1.71,5.529,31.973,31.973,0,0,1,3.286,1.1.151.151,0,0,1,.094.14V47.79a.149.149,0,0,1-.066.124.143.143,0,0,1-.084.027.161.161,0,0,1-.056-.01,31.973,31.973,0,0,0-6.75-1.85,33.983,33.983,0,0,0-5.311-.413,38.139,38.139,0,0,0-5.624.429c-3.247.487-5.7,1-8.29,1.549-2.774.583-5.918,1.245-10.533,1.966a41.28,41.28,0,0,1-6.371.508m32.2-40.795a2.693,2.693,0,0,0-2.04.819,2.872,2.872,0,0,0-.793,2.073V30.257a2.872,2.872,0,0,0,.793,2.073,2.949,2.949,0,0,0,4.079,0,2.877,2.877,0,0,0,.793-2.073V12.216a2.877,2.877,0,0,0-.793-2.073,2.694,2.694,0,0,0-2.039-.819m-20.186,0a2.693,2.693,0,0,0-2.04.819,2.878,2.878,0,0,0-.792,2.073V30.257a2.878,2.878,0,0,0,.792,2.073,2.949,2.949,0,0,0,4.079,0,2.875,2.875,0,0,0,.793-2.073V12.216a2.875,2.875,0,0,0-.793-2.073,2.694,2.694,0,0,0-2.039-.819" transform="translate(2848.391 -3090.237)" fill="#00366a"/>
    <path id="Path_1340" data-name="Path 1340" d="M305.567,3.065a9.538,9.538,0,0,1,3.43.627,8.6,8.6,0,0,1,2.894,1.819,8.955,8.955,0,0,1,2,2.863,9.286,9.286,0,0,1,.746,3.819V30.235a8.82,8.82,0,0,1-1.81,5.617A31.886,31.886,0,0,1,316.306,37V47.766a32.02,32.02,0,0,0-6.783-1.859,33.923,33.923,0,0,0-5.334-.415,38.1,38.1,0,0,0-5.646.431c-6.77,1.017-9.953,2.128-18.824,3.516a41.1,41.1,0,0,1-6.347.505,34.954,34.954,0,0,1-5.482-.419,25.962,25.962,0,0,1-6.2-1.743V37.02a25.934,25.934,0,0,0,6.2,1.743,34.853,34.853,0,0,0,5.482.42,41,41,0,0,0,6.347-.506c.53-.082,1.039-.165,1.531-.245a8.513,8.513,0,0,1-2.192-1.516,8.913,8.913,0,0,1-2-2.863,9.253,9.253,0,0,1-.746-3.818V12.192a9.258,9.258,0,0,1,.746-3.819,8.932,8.932,0,0,1,2-2.863,8.567,8.567,0,0,1,2.893-1.819,9.7,9.7,0,0,1,6.861,0,8.587,8.587,0,0,1,2.894,1.819,8.957,8.957,0,0,1,2,2.863,9.272,9.272,0,0,1,.746,3.819V30.235a9.268,9.268,0,0,1-.746,3.818,9.14,9.14,0,0,1-1.4,2.229c1.731-.355,3.494-.693,5.6-1.022a9.59,9.59,0,0,1-.657-1.207,9.268,9.268,0,0,1-.745-3.818V12.192a9.272,9.272,0,0,1,.745-3.819,8.948,8.948,0,0,1,2-2.863,8.567,8.567,0,0,1,2.893-1.819,9.528,9.528,0,0,1,3.43-.627m0,30.212a2.853,2.853,0,0,0,2.148-.865,3.008,3.008,0,0,0,.835-2.177V12.192a3.013,3.013,0,0,0-.835-2.178,3.1,3.1,0,0,0-4.3,0,3.01,3.01,0,0,0-.835,2.178V30.235a3.005,3.005,0,0,0,.835,2.177,2.851,2.851,0,0,0,2.148.865m-20.186,0a2.853,2.853,0,0,0,2.148-.865,3.008,3.008,0,0,0,.836-2.177V12.192a3.013,3.013,0,0,0-.836-2.178,3.1,3.1,0,0,0-4.3,0,3.009,3.009,0,0,0-.835,2.178V30.235a3,3,0,0,0,.835,2.177,2.851,2.851,0,0,0,2.148.865M305.567,2.763a9.89,9.89,0,0,0-3.538.646,8.934,8.934,0,0,0-2.993,1.883,9.253,9.253,0,0,0-2.066,2.959,9.614,9.614,0,0,0-.772,3.942V30.235a9.607,9.607,0,0,0,.772,3.941,8.868,8.868,0,0,0,.44.856c-1.69.271-3.132.544-4.367.792a9.219,9.219,0,0,0,1.707-5.589V12.192a9.632,9.632,0,0,0-.772-3.942,9.29,9.29,0,0,0-2.065-2.959,8.965,8.965,0,0,0-2.994-1.883,10.015,10.015,0,0,0-7.075,0,8.934,8.934,0,0,0-2.993,1.883,9.266,9.266,0,0,0-2.066,2.959,9.614,9.614,0,0,0-.772,3.942V30.235a9.607,9.607,0,0,0,.772,3.941,9.247,9.247,0,0,0,2.066,2.959,8.809,8.809,0,0,0,1.483,1.141l-.66.1a40.9,40.9,0,0,1-6.3.5,34.746,34.746,0,0,1-5.434-.415,25.574,25.574,0,0,1-6.127-1.722.3.3,0,0,0-.286.024.3.3,0,0,0-.136.252V47.782a.3.3,0,0,0,.182.276,26.181,26.181,0,0,0,6.273,1.765,35.306,35.306,0,0,0,5.529.423,41.578,41.578,0,0,0,6.393-.509c4.618-.723,7.764-1.385,10.54-1.969,2.591-.545,5.04-1.06,8.282-1.547a37.973,37.973,0,0,1,5.6-.427,33.777,33.777,0,0,1,5.287.412,31.891,31.891,0,0,1,6.719,1.841.294.294,0,0,0,.111.022.308.308,0,0,0,.17-.052.3.3,0,0,0,.132-.25V37a.3.3,0,0,0-.19-.28,32.572,32.572,0,0,0-3.1-1.049,9.071,9.071,0,0,0,1.615-5.441V12.192a9.633,9.633,0,0,0-.772-3.942A9.3,9.3,0,0,0,312.1,5.292a8.965,8.965,0,0,0-2.994-1.883,9.881,9.881,0,0,0-3.538-.646m0,30.212a2.543,2.543,0,0,1-1.931-.773,2.693,2.693,0,0,1-.75-1.967V12.192a2.7,2.7,0,0,1,.75-1.968,2.8,2.8,0,0,1,3.862,0,2.7,2.7,0,0,1,.751,1.968V30.235A2.7,2.7,0,0,1,307.5,32.2a2.545,2.545,0,0,1-1.931.773m-20.186,0a2.543,2.543,0,0,1-1.931-.773,2.693,2.693,0,0,1-.75-1.967V12.192a2.7,2.7,0,0,1,.75-1.968,2.8,2.8,0,0,1,3.862,0,2.7,2.7,0,0,1,.75,1.968V30.235a2.692,2.692,0,0,1-.75,1.967,2.545,2.545,0,0,1-1.931.773" transform="translate(2848.414 -3090.214)" fill="#fff"/>
    <path id="Path_1341" data-name="Path 1341" d="M268.45,39.234a.151.151,0,0,1-.151-.151V12.461h-4.718a.151.151,0,0,1-.151-.15V8.264a.15.15,0,0,1,.133-.15,8.288,8.288,0,0,0,6.576-4.679.152.152,0,0,1,.136-.085h4.259a.151.151,0,0,1,.15.151V39.083a.151.151,0,0,1-.15.151Z" transform="translate(2848.142 -3090.292)" fill="#00366a"/>
    <path id="Path_1342" data-name="Path 1342" d="M274.511,3.478V39.06h-6.085V12.287h-4.869V8.241a8.495,8.495,0,0,0,6.7-4.763Zm0-.3h-4.257a.3.3,0,0,0-.272.171,8.144,8.144,0,0,1-6.458,4.594.3.3,0,0,0-.269.3v4.046a.3.3,0,0,0,.3.3h4.567V39.06a.3.3,0,0,0,.3.3h6.085a.3.3,0,0,0,.3-.3V3.478a.3.3,0,0,0-.3-.3" transform="translate(2848.165 -3090.269)" fill="#fff"/>
    <path id="Path_1343" data-name="Path 1343" d="M285.321,37.6a9.765,9.765,0,0,1-3.485-.635,8.8,8.8,0,0,1-2.942-1.852A9.113,9.113,0,0,1,276.86,32.2a9.462,9.462,0,0,1-.758-3.88V10.283A9.475,9.475,0,0,1,276.86,6.4a9.119,9.119,0,0,1,2.033-2.91,8.77,8.77,0,0,1,2.942-1.851,9.861,9.861,0,0,1,6.969,0,8.791,8.791,0,0,1,2.944,1.851,9.165,9.165,0,0,1,2.032,2.91,9.487,9.487,0,0,1,.758,3.881V28.324a9.474,9.474,0,0,1-.758,3.88,9.122,9.122,0,0,1-2.032,2.911,8.784,8.784,0,0,1-2.943,1.851,9.753,9.753,0,0,1-3.485.636m0-30.212a2.725,2.725,0,0,0-2.04.819,2.881,2.881,0,0,0-.792,2.073V28.324a2.878,2.878,0,0,0,.792,2.073,2.95,2.95,0,0,0,4.08,0,2.877,2.877,0,0,0,.793-2.073V10.283a2.884,2.884,0,0,0-.793-2.073,2.726,2.726,0,0,0-2.04-.819" transform="translate(2846.452 -3089.979)" fill="#c48b2f"/>
    <path id="Path_1344" data-name="Path 1344" d="M285.3,1.132a9.538,9.538,0,0,1,3.43.627,8.587,8.587,0,0,1,2.894,1.819,8.956,8.956,0,0,1,2,2.863,9.286,9.286,0,0,1,.746,3.819V28.3a9.282,9.282,0,0,1-.746,3.818,8.937,8.937,0,0,1-2,2.863,8.59,8.59,0,0,1-2.894,1.82,9.715,9.715,0,0,1-6.861,0,8.569,8.569,0,0,1-2.893-1.82,8.913,8.913,0,0,1-2-2.863,9.254,9.254,0,0,1-.746-3.818V10.259a9.258,9.258,0,0,1,.746-3.819,8.931,8.931,0,0,1,2-2.863,8.567,8.567,0,0,1,2.893-1.819,9.532,9.532,0,0,1,3.43-.627m0,30.212a2.853,2.853,0,0,0,2.148-.865,3.008,3.008,0,0,0,.835-2.177V10.259a3.013,3.013,0,0,0-.835-2.178,3.1,3.1,0,0,0-4.3,0,3.009,3.009,0,0,0-.835,2.178V28.3a3,3,0,0,0,.835,2.177,2.851,2.851,0,0,0,2.148.865M285.3.83a9.871,9.871,0,0,0-3.538.646,8.934,8.934,0,0,0-2.993,1.883A9.255,9.255,0,0,0,276.7,6.318a9.614,9.614,0,0,0-.772,3.942V28.3a9.607,9.607,0,0,0,.772,3.941,9.236,9.236,0,0,0,2.066,2.959,8.913,8.913,0,0,0,2.993,1.883,10.015,10.015,0,0,0,7.075,0A8.94,8.94,0,0,0,291.83,35.2a9.273,9.273,0,0,0,2.065-2.959,9.622,9.622,0,0,0,.772-3.941V10.259a9.632,9.632,0,0,0-.772-3.942,9.292,9.292,0,0,0-2.065-2.959,8.952,8.952,0,0,0-2.994-1.883A9.881,9.881,0,0,0,285.3.83m0,30.212a2.543,2.543,0,0,1-1.931-.773,2.692,2.692,0,0,1-.75-1.967V10.259a2.7,2.7,0,0,1,.75-1.968,2.8,2.8,0,0,1,3.862,0,2.7,2.7,0,0,1,.751,1.968V28.3a2.692,2.692,0,0,1-.751,1.967,2.545,2.545,0,0,1-1.931.773" transform="translate(2846.475 -3089.956)" fill="#fff"/>
    <path id="Path_1345" data-name="Path 1345" d="M266.117,37.308a.151.151,0,0,1-.151-.151V10.535h-4.718a.151.151,0,0,1-.151-.15V6.338a.15.15,0,0,1,.133-.15,8.293,8.293,0,0,0,6.577-4.678.152.152,0,0,1,.136-.085H272.2a.15.15,0,0,1,.15.151V37.157a.151.151,0,0,1-.15.151Z" transform="translate(2848.453 -3090.035)" fill="#c48b2f"/>
    <path id="Path_1346" data-name="Path 1346" d="M272.178,1.552V37.134h-6.085V10.361h-4.869V6.315a8.492,8.492,0,0,0,6.7-4.763Zm0-.3H267.92a.3.3,0,0,0-.271.171,8.145,8.145,0,0,1-6.458,4.594.3.3,0,0,0-.269.3v4.046a.3.3,0,0,0,.3.3h4.567V37.134a.3.3,0,0,0,.3.3h6.085a.3.3,0,0,0,.3-.3V1.552a.3.3,0,0,0-.3-.3" transform="translate(2848.476 -3090.012)" fill="#fff"/>
    <path id="Path_1347" data-name="Path 1347" d="M304.212,55.13a38.376,38.376,0,0,1-5.668-.432c-3.258-.488-5.712-1.005-8.31-1.552-2.905-.611-5.909-1.244-10.515-1.965a41.177,41.177,0,0,0-6.321-.5,34.845,34.845,0,0,0-5.458.418,25.729,25.729,0,0,0-6.165,1.732.159.159,0,0,1-.06.011.152.152,0,0,1-.083-.024.15.15,0,0,1-.068-.126V41.928a.153.153,0,0,1,.091-.14,26.077,26.077,0,0,1,6.237-1.752,35.089,35.089,0,0,1,5.5-.421,41.3,41.3,0,0,1,6.372.507c4.615.722,7.758,1.383,10.533,1.966,2.593.546,5.043,1.062,8.29,1.549a38.064,38.064,0,0,0,5.626.429,33.84,33.84,0,0,0,5.309-.413,32,32,0,0,0,6.75-1.849.157.157,0,0,1,.055-.01.143.143,0,0,1,.085.027.149.149,0,0,1,.066.124V52.705a.151.151,0,0,1-.094.14,32.336,32.336,0,0,1-6.815,1.868,34.277,34.277,0,0,1-5.359.417" transform="translate(2848.391 -3095.127)" fill="#a10032"/>
    <path id="Path_1348" data-name="Path 1348" d="M273.372,39.743a41.107,41.107,0,0,1,6.347.505c8.871,1.388,12.054,2.5,18.824,3.516a38.085,38.085,0,0,0,5.646.431,33.913,33.913,0,0,0,5.334-.415,32.041,32.041,0,0,0,6.783-1.859V52.683a31.973,31.973,0,0,1-6.783,1.858,33.915,33.915,0,0,1-5.334.416,37.953,37.953,0,0,1-5.646-.432c-6.77-1.016-9.953-2.127-18.824-3.515a40.892,40.892,0,0,0-6.347-.505,34.952,34.952,0,0,0-5.482.419,25.911,25.911,0,0,0-6.2,1.743V41.9a25.951,25.951,0,0,1,6.2-1.743,34.953,34.953,0,0,1,5.482-.419m0-.3a35.22,35.22,0,0,0-5.529.424,26.122,26.122,0,0,0-6.272,1.764.3.3,0,0,0-.183.276V52.667a.3.3,0,0,0,.137.252.3.3,0,0,0,.166.049.3.3,0,0,0,.12-.025,25.557,25.557,0,0,1,6.127-1.721,34.643,34.643,0,0,1,5.435-.416,40.893,40.893,0,0,1,6.3.5c4.6.721,7.606,1.353,10.51,1.963,2.6.548,5.055,1.064,8.317,1.554a38.564,38.564,0,0,0,5.691.434,34.359,34.359,0,0,0,5.382-.419,32.516,32.516,0,0,0,6.848-1.875.3.3,0,0,0,.191-.281V41.921a.3.3,0,0,0-.133-.25.308.308,0,0,0-.17-.052.3.3,0,0,0-.112.022,31.818,31.818,0,0,1-6.718,1.841,33.78,33.78,0,0,1-5.288.412,37.963,37.963,0,0,1-5.6-.427c-3.242-.487-5.691-1-8.282-1.547-2.775-.584-5.921-1.246-10.54-1.969a41.557,41.557,0,0,0-6.392-.509" transform="translate(2848.414 -3095.104)" fill="#fff"/>
    <path id="Path_1349" data-name="Path 1349" d="M308.613,37.61a9.764,9.764,0,0,1-3.485-.635,8.8,8.8,0,0,1-2.942-1.852,9.112,9.112,0,0,1-2.033-2.911,9.462,9.462,0,0,1-.758-3.88V10.29a9.48,9.48,0,0,1,.758-3.881A9.114,9.114,0,0,1,302.186,3.5a8.759,8.759,0,0,1,2.942-1.852,9.861,9.861,0,0,1,6.969,0A8.78,8.78,0,0,1,315.041,3.5a9.161,9.161,0,0,1,2.032,2.909,9.486,9.486,0,0,1,.758,3.881V28.331a9.473,9.473,0,0,1-.758,3.88,9.121,9.121,0,0,1-2.032,2.911,8.784,8.784,0,0,1-2.943,1.851,9.753,9.753,0,0,1-3.485.636m0-30.212a2.722,2.722,0,0,0-2.04.82,2.877,2.877,0,0,0-.792,2.072V28.331a2.878,2.878,0,0,0,.792,2.073,2.95,2.95,0,0,0,4.08,0,2.878,2.878,0,0,0,.793-2.073V10.29a2.881,2.881,0,0,0-.793-2.072,2.724,2.724,0,0,0-2.04-.82" transform="translate(2843.346 -3089.98)" fill="#c48b2f"/>
    <path id="Path_1350" data-name="Path 1350" d="M308.59,1.14a9.539,9.539,0,0,1,3.43.627,8.6,8.6,0,0,1,2.894,1.819,8.957,8.957,0,0,1,2,2.863,9.271,9.271,0,0,1,.746,3.819V28.31a9.267,9.267,0,0,1-.746,3.818,8.938,8.938,0,0,1-2,2.863,8.59,8.59,0,0,1-2.894,1.82,9.715,9.715,0,0,1-6.861,0,8.57,8.57,0,0,1-2.893-1.82,8.913,8.913,0,0,1-2-2.863,9.254,9.254,0,0,1-.746-3.818V10.267a9.259,9.259,0,0,1,.746-3.819,8.932,8.932,0,0,1,2-2.863,8.581,8.581,0,0,1,2.893-1.819,9.535,9.535,0,0,1,3.43-.627m0,30.212a2.853,2.853,0,0,0,2.148-.865,3.008,3.008,0,0,0,.835-2.177V10.267a3.013,3.013,0,0,0-.835-2.178,3.1,3.1,0,0,0-4.3,0,3.009,3.009,0,0,0-.835,2.178V28.31a3,3,0,0,0,.835,2.177,2.851,2.851,0,0,0,2.148.865m0-30.514a9.89,9.89,0,0,0-3.538.646,8.934,8.934,0,0,0-2.994,1.883,9.256,9.256,0,0,0-2.066,2.959,9.614,9.614,0,0,0-.772,3.942V28.31a9.607,9.607,0,0,0,.772,3.941,9.25,9.25,0,0,0,2.066,2.959,8.913,8.913,0,0,0,2.994,1.883,10.015,10.015,0,0,0,7.076,0,8.939,8.939,0,0,0,2.994-1.883,9.271,9.271,0,0,0,2.065-2.959,9.621,9.621,0,0,0,.772-3.941V10.267a9.631,9.631,0,0,0-.772-3.942,9.29,9.29,0,0,0-2.065-2.959,8.951,8.951,0,0,0-2.994-1.883A9.9,9.9,0,0,0,308.59.838m0,30.212a2.543,2.543,0,0,1-1.931-.773,2.692,2.692,0,0,1-.75-1.967V10.267a2.7,2.7,0,0,1,.75-1.968,2.8,2.8,0,0,1,3.862,0,2.7,2.7,0,0,1,.751,1.968V28.31a2.692,2.692,0,0,1-.751,1.967,2.545,2.545,0,0,1-1.931.773" transform="translate(2843.37 -3089.957)" fill="#fff"/>
    <path id="Path_1351" data-name="Path 1351" d="M277.187,43.474v1.388l2.547.168v1.028l-2.547-.168v1.6l2.919.193v1.028l-4.138-.274V42.366l3.994.264v1.028Z" transform="translate(2846.47 -3095.494)" fill="#fff"/>
    <path id="Path_1352" data-name="Path 1352" d="M283.419,45.828a.819.819,0,0,0-.442.026.244.244,0,0,0-.167.24.362.362,0,0,0,.08.231.873.873,0,0,0,.282.207,4.056,4.056,0,0,0,.567.226,3.072,3.072,0,0,1,1.219.673,1.368,1.368,0,0,1,.393,1,1.193,1.193,0,0,1-.221.725,1.174,1.174,0,0,1-.636.425,2.191,2.191,0,0,1-.976.033,2.661,2.661,0,0,1-1.346-.565,1.764,1.764,0,0,1-.593-1.109h1.076a1.116,1.116,0,0,0,.278.569,1.021,1.021,0,0,0,.585.27.9.9,0,0,0,.523-.039.32.32,0,0,0,.2-.312.369.369,0,0,0-.066-.216.684.684,0,0,0-.241-.191,2.979,2.979,0,0,0-.5-.2,3.02,3.02,0,0,1-1.313-.727,1.5,1.5,0,0,1-.409-1.061.985.985,0,0,1,.808-1.027,2.334,2.334,0,0,1,.926-.009,2.526,2.526,0,0,1,1.227.505,1.543,1.543,0,0,1,.565.962l-1.1-.016a.715.715,0,0,0-.239-.416.954.954,0,0,0-.477-.21" transform="translate(2845.722 -3095.84)" fill="#fff"/>
    <path id="Path_1353" data-name="Path 1353" d="M289.058,45.859v.924l-.807-.149v2.142a1.2,1.2,0,0,0,.027.293.27.27,0,0,0,.094.154.466.466,0,0,0,.2.076,1.656,1.656,0,0,0,.452.017l.143.926a2.5,2.5,0,0,1-.416.023,2.9,2.9,0,0,1-.46-.048,1.876,1.876,0,0,1-.713-.26.955.955,0,0,1-.365-.488,2.6,2.6,0,0,1-.107-.826V46.422l-.612-.114v-.924l.612.113v-.8l1.145-.613v1.628Z" transform="translate(2845.066 -3095.723)" fill="#fff"/>
    <path id="Path_1354" data-name="Path 1354" d="M290.588,51.247V50.054l1.17.236v1.193Z" transform="translate(2844.521 -3096.519)" fill="#fff"/>
    <path id="Path_1355" data-name="Path 1355" d="M294.107,51.273V46.885a2.565,2.565,0,0,1-.716.38,3.192,3.192,0,0,1-.833.177V46.39A3.445,3.445,0,0,0,293.665,46a1.55,1.55,0,0,0,.673-.787l.93.2v6.1Z" transform="translate(2844.258 -3095.875)" fill="#fff"/>
    <path id="Path_1356" data-name="Path 1356" d="M299.291,51.462q.848.16.9-1.53a1.1,1.1,0,0,1-1.091.3,1.874,1.874,0,0,1-.88-.422,2.272,2.272,0,0,1-.611-.824,2.575,2.575,0,0,1-.22-1.061,1.967,1.967,0,0,1,.244-1,1.4,1.4,0,0,1,.692-.6,1.817,1.817,0,0,1,1.043-.073,2.149,2.149,0,0,1,1.5,1.05,4.637,4.637,0,0,1,.521,2.389,4.742,4.742,0,0,1-.25,1.675,1.7,1.7,0,0,1-.737.926,1.732,1.732,0,0,1-1.187.139,2.082,2.082,0,0,1-1.417-.982,2.166,2.166,0,0,1-.293-.853l1.132.093a1.187,1.187,0,0,0,.218.536.7.7,0,0,0,.433.25m.074-2.075a.615.615,0,0,0,.569-.14.934.934,0,0,0,.218-.7,1.989,1.989,0,0,0-.1-.674,1.158,1.158,0,0,0-.281-.457.78.78,0,0,0-.4-.211.588.588,0,0,0-.584.172,1.113,1.113,0,0,0-.218.763q0,1.095.8,1.245" transform="translate(2843.614 -3096.005)" fill="#fff"/>
    <path id="Path_1357" data-name="Path 1357" d="M302.763,52.981a2.344,2.344,0,0,1,.5-1.245,5.485,5.485,0,0,1,.59-.637q.325-.3.815-.711.276-.234.527-.451a1.17,1.17,0,0,0,.406-.917.955.955,0,0,0-.191-.621.784.784,0,0,0-.536-.281.642.642,0,0,0-.585.159,1.11,1.11,0,0,0-.233.677v.009l-1.192-.27a1.621,1.621,0,0,1,.622-1.279,1.994,1.994,0,0,1,1.421-.261,2.413,2.413,0,0,1,1.018.357,1.954,1.954,0,0,1,.661.7,1.846,1.846,0,0,1,.228.894,2,2,0,0,1-.133.735,2.444,2.444,0,0,1-.433.688,5.712,5.712,0,0,1-.807.738,4.41,4.41,0,0,0-.924.858l2.3.3V53.5Z" transform="translate(2842.897 -3096.129)" fill="#fff"/>
    <path id="Path_1358" data-name="Path 1358" d="M310.647,48.488q-.862,0-.916,1.7a1.334,1.334,0,0,1,1.111-.5,1.617,1.617,0,0,1,.894.257,1.738,1.738,0,0,1,.622.708,2.265,2.265,0,0,1,.224,1.019,2.2,2.2,0,0,1-.249,1.05,1.852,1.852,0,0,1-.7.737,2.056,2.056,0,0,1-1.061.27,1.743,1.743,0,0,1-1.529-.765,4.037,4.037,0,0,1-.53-2.291,5.082,5.082,0,0,1,.255-1.722,2.206,2.206,0,0,1,.75-1.066,2,2,0,0,1,1.208-.364,1.841,1.841,0,0,1,.835.185,1.6,1.6,0,0,1,.607.528,1.808,1.808,0,0,1,.3.8l-1.152.121a.963.963,0,0,0-.222-.495.579.579,0,0,0-.441-.167m-.075,2.089a.74.74,0,0,0-.578.247,1.076,1.076,0,0,0-.222.74,1.5,1.5,0,0,0,.222.882.73.73,0,0,0,1.174.028,1.284,1.284,0,0,0,.22-.8q0-1.095-.816-1.093" transform="translate(2842.131 -3096.181)" fill="#fff"/>
  </g>
</svg>
