<?xml version="1.0" encoding="UTF-8" standalone="no"?>
<!-- Generator: Adobe Illustrator 23.0.0, SVG Export Plug-In . SVG Version: 6.00 Build 0)  -->

<svg
   version="1.1"
   id="Ebene_1"
   x="0px"
   y="0px"
   viewBox="0 0 59.601364 59.599998"
   xml:space="preserve"
   sodipodi:docname="HMG_Icon_Info.svg"
   width="59.601364"
   height="59.599998"
   inkscape:version="1.3.2 (091e20e, 2023-11-25)"
   xmlns:inkscape="http://www.inkscape.org/namespaces/inkscape"
   xmlns:sodipodi="http://sodipodi.sourceforge.net/DTD/sodipodi-0.dtd"
   xmlns="http://www.w3.org/2000/svg"
   xmlns:svg="http://www.w3.org/2000/svg"><defs
   id="defs5" /><sodipodi:namedview
   id="namedview5"
   pagecolor="#ffffff"
   bordercolor="#000000"
   borderopacity="0.25"
   inkscape:showpageshadow="2"
   inkscape:pageopacity="0.0"
   inkscape:pagecheckerboard="0"
   inkscape:deskcolor="#d1d1d1"
   inkscape:zoom="2.7764706"
   inkscape:cx="30.074153"
   inkscape:cy="28.813559"
   inkscape:window-width="1344"
   inkscape:window-height="449"
   inkscape:window-x="0"
   inkscape:window-y="25"
   inkscape:window-maximized="0"
   inkscape:current-layer="Ebene_1" />
<style
   type="text/css"
   id="style1">
	.st0{fill:#fff;}
</style>
<g
   id="g1"
   transform="translate(-12.2,-13.7)">
	<g
   id="Ebene_1_1_">
	</g>
</g>
<g
   id="Piktogramme"
   transform="translate(-12.2,-13.7)">
	<g
   id="g5">
		<path
   class="st0"
   d="M 42.2,68.3 C 28.5,68.3 17.4,57.2 17.4,43.5 17.4,29.8 28.5,18.7 42.2,18.7 55.9,18.7 67,29.8 67,43.5 67,57.2 55.8,68.3 42.2,68.3 Z m 0,-48.2 c -12.9,0 -23.4,10.5 -23.4,23.4 0,12.9 10.5,23.4 23.4,23.4 12.9,0 23.4,-10.5 23.4,-23.4 C 65.5,30.6 55.1,20.1 42.2,20.1 Z"
   id="path1" />
		<g
   id="g4">
			<g
   id="g3">
				<path
   class="st0"
   d="m 42.4,33.9 c 1.9,0 3.4,-1.5 3.4,-3.4 0,-1.9 -1.5,-3.4 -3.4,-3.4 -1.9,0 -3.4,1.5 -3.4,3.4 -0.1,1.9 1.5,3.4 3.4,3.4 z"
   id="path2" />
				<path
   class="st0"
   d="m 46.9,55.9 h -2.6 v -16 c 0,-1.1 -0.9,-2 -2,-2 h -5 c -1.1,0 -2,0.9 -2,2 0,1.1 0.9,2 2,2 h 2.9 v 14 h -2.8 c -1.1,0 -2,0.9 -2,2 0,1.1 0.9,2 2,2 h 9.4 c 1.1,0 2,-0.9 2,-2 0.1,-1.1 -0.8,-2 -1.9,-2 z"
   id="path3" />
			</g>
			<path
   class="st0"
   d="M 22.4,37.9 21,37.5 c 2,-7.1 7.4,-12.7 14.5,-14.9 l 0.4,1.4 c -6.6,2 -11.6,7.2 -13.5,13.9 z"
   id="path4" />
		</g>
	</g>
	<path
   class="st0"
   d="m 58.2,18.5 -0.8,2.9 c 7,4.9 11.6,13 11.6,22.1 0,14.8 -12.1,26.9 -26.9,26.9 -14.8,0 -26.9,-12.1 -26.9,-26.9 0,-14.8 12.1,-26.9 26.9,-26.9 4.2,0 8.1,1 11.6,2.6 l 0.7,-2.8 C 50.6,14.7 46.4,13.7 42,13.7 25.6,13.7 12.2,27.1 12.2,43.5 12.2,59.9 25.6,73.3 42,73.3 58.4,73.3 71.8,59.9 71.8,43.5 71.9,33 66.5,23.8 58.2,18.5 Z"
   id="path5" />
</g>
<g
   id="Icons"
   transform="translate(-12.2,-13.7)">
</g>
<g
   id="katman_1"
   transform="translate(-12.2,-13.7)">
</g>
<g
   id="Layer_1"
   transform="translate(-12.2,-13.7)">
</g>
<g
   id="Õľ_x2264__x201E__x5F_1"
   transform="translate(-12.2,-13.7)">
</g>
</svg>
