<svg height="386.12" viewBox="0 0 384.58 386.12" width="384.58" xmlns="http://www.w3.org/2000/svg"><g fill="none" fill-rule="evenodd" stroke-linecap="round" stroke-width="5" transform="translate(2.5 2.5)"><g stroke="#fff"><path d="m379.58 381.12v-381.12"/><path d="m273.61 381.12v-29.49c0-16.85-13.66-30.5-30.5-30.5h-242.5"/><path d="m126.91 0v156.89c0 35.24 28.57 63.81 63.81 63.81h57.68c13.98.18 25.22 11.57 25.22 25.55 0 14.11-11.44 25.55-25.55 25.55h-247.46"/><path d="m273.61 0v136.69c0 16.8-13.62 30.41-30.41 30.41h-29.36c-17.49 0-31.67-14.18-31.67-31.67v-135.43"/><path d="m325.45 349.75v-37.71"/><path d="m325.45 278.87v-37.71"/><path d="m325.45 207.98v-37.7"/><path d="m325.45 137.1v-37.7"/><path d="m325.45 66.22v-37.71"/><path d="m273.61 304.14v-10.18"/><path d="m273.61 281.98v-10.18"/><path d="m273.61 325.92v-10.19"/><path d="m273.61 197.77v-10.18"/><path d="m273.61 175.61v-10.18"/><path d="m273.61 219.55v-10.19"/></g><g stroke="#e6243a" stroke-linejoin="round" transform="translate(0 3.61)"><path d="m223.33 377.51v-26.78h-87.78v26.78"/><path d="m111.44 377.31v-26.78h-87.78v26.78"/><path d="m0 75.73v146.31h75.94v-221.83"/><path d="m75.94 145.85-75.94 75.94"/><path d="m76.2 74.17-75.55 75.55"/><path d="m0 75.73 75.72-75.73"/></g></g></svg>